<svg width="12" height="13" fill="none" xmlns="http://www.w3.org/2000/svg"><path fill-rule="evenodd" clip-rule="evenodd" d="M9.35 12.425H2.285C1.252 12.425.51 11.652.51 10.7V2.658c0-.952.742-1.724 1.776-1.724h7.063c.833 0 1.933.772 1.933 1.724V10.7c0 .952-1.1 1.723-1.933 1.723Zm.646-9.48c0-.476-.643-.862-1.16-.862H2.598c-.517 0-.936.386-.936.862v7.469c0 .476.42.861.936.861h6.238c.517 0 1.16-.386 1.16-.861V2.945Zm-4.28 7.756a.847.847 0 0 1-.873-.862c0-.476.357-.862.874-.862s1.059.386 1.059.862-.542.862-1.06.862Z" fill="#fff"/></svg>