<svg width="1000" height="1000" fill="none" xmlns="http://www.w3.org/2000/svg"><circle cx="500" cy="500" r="500" fill="#fff"/><path d="M123.525 170.95C46.608 258.88 0 373.997 0 500c0 11.608.395 23.124 1.174 34.535 148.864 113.297 362.177 102.119 498.325-33.534-192.541-.497-351.445-144.092-375.974-330.051Z" fill="#EB017F"/><path d="M171.81 877.226C259.631 953.695 374.408 1000 500 1000c11.818 0 23.541-.41 35.155-1.217C648.15 849.76 636.668 636.461 500.708 500.501l-.354-.354-.354.354c0-192.691 143.323-351.907 329.182-376.86C741.235 46.655 626.066 0 500 0c-11.099 0-22.114.362-33.033 1.074-114.403 148.974-103.511 363.24 32.678 499.781l.355-.354c0 192.348-142.814 351.34-328.19 376.725Z" fill="#EB017F"/><path d="M998.896 466.521C850.029 353.167 636.67 364.327 500.501 500c192.348 0 351.339 142.813 376.724 328.189C953.694 740.369 1000 625.592 1000 500c0-11.25-.372-22.414-1.104-33.479Z" fill="#EB017F"/><g clip-path="url('#clip0_9_792')"><path d="m858.826 503.731-29.081 26.856-10.738-2.95 1.68-34.383 11.201 3.077-1.161 19.99 16.898-15.667 11.201 3.077Zm1.087.299 10.923 3.001-15.381 30.619-10.923-3.001 15.381-30.619Zm16.182 4.445 14.626 4.019c3.394.932 6.173 2.293 8.336 4.082 2.194 1.797 3.671 3.912 4.43 6.344.759 2.432.752 5.052-.019 7.86-1.026 3.733-2.792 6.782-5.3 9.146-2.5 2.334-5.504 3.848-9.014 4.543-3.47.673-7.164.471-11.083-.606l-17.357-4.768 15.381-30.62Zm4.686 26.973c2.808.772 5.225.49 7.251-.845 2.065-1.357 3.479-3.424 4.242-6.202.517-1.882.329-3.493-.563-4.834-.862-1.332-2.389-2.298-4.58-2.9l-4.165-1.145-7.277 14.528 5.092 1.398Zm40.362-5.736-1.784 3.592 13.701 3.763-3.735 7.437-13.747-3.777-2.003 4.029 16.246 4.464-3.93 7.781-26.938-7.401 15.381-30.619 26.336 7.235-3.929 7.781-15.598-4.285Z" fill="#fff"/></g><g clip-path="url('#clip1_9_792')"><path d="m141.176 496.564 29.082-26.855 10.738 2.95-1.681 34.383-11.201-3.077 1.162-19.991-16.899 15.668-11.201-3.078Zm-1.087-.298-10.923-3.001 15.381-30.62 10.923 3.001-15.381 30.62Zm-16.181-4.446-14.626-4.018c-3.395-.932-6.173-2.293-8.337-4.082-2.194-1.798-3.67-3.912-4.43-6.344-.758-2.432-.752-5.052.02-7.86 1.025-3.734 2.792-6.783 5.3-9.147 2.499-2.333 5.504-3.847 9.013-4.542 3.47-.673 7.165-.471 11.084.605l17.357 4.769-15.381 30.619Zm-4.686-26.973c-2.808-.771-5.225-.489-7.251.846-2.066 1.357-3.48 3.424-4.243 6.201-.517 1.883-.329 3.494.564 4.834.862 1.332 2.388 2.299 4.579 2.901l4.166 1.144 7.276-14.527-5.091-1.399Zm-40.362 5.737 1.783-3.592-13.7-3.764 3.735-7.436 13.747 3.777 2.003-4.03-16.246-4.463 3.93-7.781 26.937 7.401-15.38 30.619-26.337-7.235 3.93-7.781 15.598 4.285Z" fill="#fff"/></g><g clip-path="url('#clip2_9_792')"><path d="m708.191 304.857 9.471-5.388 2.8 8.513-23.405 13.316-2.232-6.737 6.883-16.342c.71-1.729 1.111-3.062 1.204-3.999.121-.952-.016-1.776-.412-2.471-.364-.64-.907-1.012-1.629-1.117-.695-.12-1.445.049-2.252.508-.862.491-1.554 1.216-2.076 2.175-.509.916-.831 2.001-.964 3.255l-8.853-.32c.017-2.624.82-5.16 2.408-7.61 1.572-2.478 3.763-4.516 6.572-6.114 2.142-1.219 4.28-1.957 6.416-2.215 2.136-.258 4.055-.024 5.756.701a7.764 7.764 0 0 1 3.882 3.425c1.06 1.863 1.526 3.88 1.399 6.051-.127 2.171-.93 4.966-2.409 8.385l-2.559 5.984Zm16.877-28.323.845 3.329.751-.427c3.504-1.994 6.584-2.826 9.238-2.495 2.683.314 4.792 1.821 6.327 4.518 1.313 2.309 1.821 4.689 1.523 7.142-.299 2.452-1.313 4.778-3.044 6.978-1.718 2.156-3.996 4.041-6.833 5.655-2.142 1.218-4.329 2.131-6.56 2.738-2.204.592-4.35.8-6.437.625l.571-9.382a15.737 15.737 0 0 0 4.531-.479 16.512 16.512 0 0 0 4.147-1.642c1.363-.775 2.287-1.577 2.773-2.406.47-.856.483-1.674.04-2.453-.364-.639-.911-.954-1.641-.943-.746-.018-1.773.346-3.08 1.089l-8.886 5.056-5.082-20.579 19.399-11.038 2.724 8.281-11.306 6.433Zm37.516 8.365c-2.281 1.298-4.523 1.984-6.726 2.06a11.255 11.255 0 0 1-6.194-1.667c-1.899-1.202-3.529-2.999-4.89-5.391-2.057-3.616-3.227-7.258-3.51-10.926-.299-3.695.281-7.044 1.739-10.046 1.47-3.046 3.707-5.423 6.711-7.132 2.281-1.298 4.53-1.97 6.749-2.018 2.203-.075 4.254.488 6.153 1.691 1.911 1.158 3.547 2.933 4.908 5.325 2.057 3.616 3.235 7.272 3.534 10.968.283 3.668-.311 7.024-1.781 10.07-1.458 3.002-3.689 5.357-6.693 7.066Zm-3.485-8.454c1.057-.602 1.613-1.728 1.667-3.379.055-1.651-.22-3.428-.823-5.33-.592-1.946-1.3-3.642-2.122-5.088-1.44-2.531-2.981-3.33-4.622-2.396-1.057.601-1.613 1.727-1.667 3.378-.055 1.651.214 3.45.805 5.396.604 1.902 1.317 3.576 2.14 5.023 1.44 2.531 2.981 3.329 4.622 2.396Zm33.568-38.374 1.848 5.577 12.182-6.932 2.723 8.281-12.14 6.907 3.439 10.414-9.846 5.602-10.775-32.527 23.739-13.507 2.723 8.281-13.893 7.904Zm37.033 8.641c-2.531 1.44-5.059 2.529-7.585 3.267-2.541.709-4.788 1.031-6.741.963l-.334-9.419c4.172.02 7.968-.944 11.389-2.89 1.251-.712 2.124-1.411 2.617-2.097.494-.686.59-1.293.29-1.821-.285-.501-.862-.706-1.732-.617-.841.074-2.102.35-3.782.827-2.232.607-4.13 1.024-5.694 1.252-1.58.199-3.157.047-4.732-.456-1.563-.546-2.843-1.696-3.84-3.448-1.25-2.197-1.758-4.449-1.523-6.754.246-2.35 1.229-4.602 2.947-6.758 1.703-2.184 4.07-4.139 7.102-5.863 2.169-1.235 4.312-2.16 6.429-2.775 2.129-.659 4.104-.973 5.926-.941l.536 9.193a15.275 15.275 0 0 0-4.722.533 18.829 18.829 0 0 0-4.522 1.855c-1.363.776-2.309 1.572-2.838 2.388-.53.817-.644 1.49-.344 2.018.301.528.872.756 1.714.682.869-.09 2.186-.397 3.949-.922 2.144-.631 3.999-1.06 5.563-1.287a9.917 9.917 0 0 1 4.709.413c1.546.519 2.811 1.641 3.792 3.365 1.234 2.17 1.72 4.415 1.458 6.737-.263 2.321-1.245 4.574-2.948 6.758-1.719 2.156-4.08 4.088-7.084 5.797Z" fill="#EB017F"/></g><g clip-path="url('#clip3_9_792')"><path d="m262.996 740.385-10.775-32.527 9.846-5.602 8.052 24.246 5.006-2.848 2.724 8.28-14.853 8.451Zm-16.948-.187-.845-3.33-.751.427c-3.505 1.994-6.584 2.826-9.239 2.496-2.683-.315-4.791-1.821-6.326-4.519-1.314-2.308-1.822-4.689-1.523-7.141.298-2.453 1.312-4.779 3.043-6.978 1.719-2.156 3.997-4.041 6.834-5.655 2.141-1.219 4.328-2.132 6.56-2.739 2.204-.591 4.349-.8 6.437-.625l-.571 9.382a15.776 15.776 0 0 0-4.532.48 16.526 16.526 0 0 0-4.147 1.641c-1.363.776-2.287 1.578-2.773 2.406-.47.857-.483 1.674-.04 2.453.364.64.911.954 1.641.944.747.017 1.773-.346 3.08-1.09l8.887-5.056 5.082 20.579-19.4 11.038-2.723-8.28 11.306-6.433Zm-38.714 22.027-1.847-5.576-12.182 6.931-2.724-8.281 12.141-6.907-3.44-10.414 9.846-5.602 10.775 32.527-23.738 13.507-2.724-8.281 13.893-7.904Zm-37.033-8.641c2.531-1.44 5.059-2.529 7.585-3.266 2.542-.71 4.789-1.031 6.742-.964l.333 9.419c-4.171-.02-7.967.944-11.388 2.89-1.252.712-2.125 1.411-2.618 2.097-.493.686-.59 1.293-.289 1.821.285.501.862.706 1.731.617.842-.074 2.102-.35 3.782-.827 2.232-.607 4.13-1.024 5.694-1.251 1.58-.2 3.158-.048 4.733.455 1.562.547 2.842 1.696 3.839 3.448 1.251 2.198 1.758 4.449 1.524 6.755-.247 2.349-1.229 4.602-2.948 6.758-1.703 2.183-4.07 4.138-7.102 5.863-2.169 1.234-4.312 2.159-6.429 2.774-2.128.659-4.104.973-5.925.942l-.537-9.194a15.268 15.268 0 0 0 4.722-.533 18.836 18.836 0 0 0 4.523-1.855c1.362-.775 2.309-1.571 2.838-2.388.529-.817.644-1.489.343-2.018-.301-.528-.872-.756-1.713-.682-.87.09-2.186.397-3.949.922-2.145.631-3.999 1.06-5.563 1.287a9.904 9.904 0 0 1-4.709-.413c-1.547-.519-2.811-1.641-3.792-3.365-1.235-2.17-1.721-4.415-1.458-6.736.262-2.322 1.245-4.575 2.947-6.758 1.719-2.156 4.08-4.089 7.084-5.798Z" fill="#EB017F"/></g><g clip-path="url('#clip4_9_792')"><path d="m478.677 264.243 2.952 1.757.228-.833c1.069-3.888 2.658-6.654 4.769-8.298 2.119-1.674 4.675-2.1 7.668-1.278 2.562.704 4.604 2.028 6.127 3.973 1.523 1.945 2.45 4.307 2.782 7.086.309 2.74.032 5.684-.833 8.831-.653 2.376-1.554 4.568-2.702 6.575-1.141 1.977-2.511 3.641-4.11 4.994l-6.23-7.038a15.78 15.78 0 0 0 2.865-3.544c.799-1.34 1.39-2.704 1.771-4.092.416-1.512.502-2.733.26-3.663-.274-.938-.842-1.525-1.706-1.763-.71-.194-1.319-.03-1.828.494-.54.515-1.009 1.498-1.408 2.948l-2.708 9.859-18.145-10.958 5.912-21.523 7.781 3.93-3.445 12.543Zm32.443-20.613c-.695 2.531-1.795 4.601-3.299 6.212a11.257 11.257 0 0 1-5.559 3.202c-2.193.493-4.616.375-7.27-.354-4.011-1.102-7.414-2.85-10.208-5.244-2.824-2.402-4.782-5.18-5.874-8.334-1.114-3.193-1.213-6.456-.297-9.788.695-2.53 1.81-4.597 3.345-6.199 1.505-1.611 3.354-2.663 5.546-3.156 2.171-.532 4.583-.433 7.237.296 4.011 1.102 7.429 2.854 10.254 5.256 2.793 2.393 4.747 5.187 5.861 8.38 1.092 3.154 1.18 6.397.264 9.729Zm-8.443-3.514c.322-1.172-.081-2.362-1.21-3.568s-2.579-2.268-4.351-3.186c-1.794-.958-3.494-1.657-5.099-2.098-2.807-.771-4.462-.247-4.962 1.574-.322 1.173.082 2.362 1.21 3.568 1.129 1.206 2.591 2.288 4.385 3.246 1.772.918 3.461 1.597 5.065 2.038 2.808.772 4.462.247 4.962-1.574Zm17.247-28.533c-.695 2.531-1.795 4.601-3.299 6.212a11.257 11.257 0 0 1-5.559 3.202c-2.193.493-4.616.375-7.27-.354-4.011-1.102-7.414-2.85-10.208-5.244-2.824-2.402-4.782-5.18-5.874-8.334-1.114-3.193-1.213-6.456-.297-9.788.695-2.53 1.81-4.597 3.345-6.199 1.505-1.611 3.354-2.663 5.546-3.156 2.171-.532 4.583-.433 7.237.296 4.011 1.102 7.429 2.854 10.254 5.256 2.793 2.393 4.747 5.187 5.861 8.38 1.092 3.154 1.18 6.397.264 9.729Zm-8.443-3.514c.323-1.172-.081-2.362-1.21-3.568-1.128-1.206-2.579-2.268-4.351-3.186-1.794-.958-3.494-1.657-5.098-2.098-2.808-.771-4.462-.247-4.963 1.574-.322 1.172.082 2.362 1.21 3.568 1.129 1.206 2.591 2.288 4.385 3.245 1.772.919 3.461 1.598 5.065 2.039 2.808.771 4.462.247 4.962-1.574Zm22.242-46.714c-.907 3.302-2.31 6.053-4.208 8.252-1.921 2.161-4.168 3.634-6.74 4.421-2.564.756-5.265.744-8.104-.036-3.765-1.034-6.875-2.818-9.332-5.351-2.448-2.565-4.066-5.614-4.854-9.149-.81-3.574-.673-7.336.413-11.286.856-3.117 2.185-5.721 3.988-7.815 1.772-2.101 3.853-3.454 6.243-4.059l3.994 9.56c-2.929.755-4.787 2.567-5.576 5.437-.466 1.697-.465 3.323.004 4.879.468 1.556 1.357 2.912 2.666 4.068 1.277 1.147 2.873 1.984 4.786 2.509 1.913.526 3.621.348 5.124-.533 1.481-.921 2.497-2.384 3.048-4.39.754-2.746.166-5.496-1.766-8.25l7.924-4.743c1.797 2.518 2.859 5.116 3.185 7.794.335 2.648.07 5.545-.795 8.692Zm4.375-40.929-3.395 12.358 4.756 4.791-3.166 11.525-26.728-29.544 2.95-10.738 34.51 1.218-2.988 10.877-5.939-.487Zm-8.288-.634-8.718-.703 6.976 7.044 1.742-6.341Zm-12.925-26.88 4.018-14.626c.932-3.395 2.293-6.174 4.082-8.337 1.797-2.194 3.912-3.67 6.344-4.43 2.432-.758 5.052-.752 7.86.02 3.734 1.025 6.782 2.792 9.147 5.3 2.333 2.5 3.847 5.504 4.542 9.013.673 3.47.471 7.165-.606 11.084l-4.768 17.357-30.619-15.381Zm26.973-4.686c.771-2.808.489-5.225-.846-7.251-1.357-2.066-3.424-3.48-6.201-4.243-1.883-.517-3.494-.33-4.834.564-1.332.862-2.299 2.388-2.901 4.579l-1.145 4.166 14.528 7.276 1.399-5.091Z" fill="#fff"/></g><g clip-path="url('#clip5_9_792')"><path d="m521.326 736.053-2.952-1.757-.229.833c-1.068 3.888-2.658 6.654-4.768 8.297-2.12 1.675-4.676 2.101-7.669 1.279-2.561-.704-4.603-2.028-6.126-3.973-1.524-1.945-2.451-4.307-2.783-7.086-.309-2.74-.031-5.684.834-8.831.652-2.376 1.553-4.568 2.702-6.575 1.14-1.977 2.51-3.641 4.11-4.994l6.23 7.038a15.72 15.72 0 0 0-2.865 3.543 16.552 16.552 0 0 0-1.772 4.093c-.415 1.512-.502 2.733-.259 3.663.273.937.842 1.525 1.706 1.762.709.195 1.319.031 1.828-.493.539-.515 1.009-1.498 1.407-2.948l2.708-9.859 18.146 10.958-5.913 21.523-7.781-3.93 3.446-12.543Zm-32.444 20.612c.696-2.53 1.795-4.6 3.3-6.211 1.535-1.603 3.388-2.67 5.559-3.202 2.193-.493 4.616-.375 7.269.354 4.012 1.102 7.414 2.85 10.208 5.244 2.825 2.402 4.783 5.18 5.874 8.333 1.114 3.194 1.213 6.457.298 9.789-.695 2.53-1.811 4.597-3.346 6.199-1.504 1.611-3.353 2.663-5.546 3.156-2.17.532-4.583.433-7.236-.296-4.012-1.102-7.43-2.854-10.254-5.256-2.794-2.393-4.748-5.187-5.862-8.38-1.091-3.154-1.179-6.397-.264-9.73Zm8.443 3.515c-.322 1.172.081 2.361 1.21 3.568 1.129 1.206 2.579 2.268 4.351 3.186 1.795.958 3.494 1.657 5.099 2.098 2.808.771 4.462.246 4.962-1.574.322-1.173-.081-2.362-1.21-3.568s-2.59-2.288-4.385-3.246c-1.772-.918-3.46-1.597-5.065-2.038-2.808-.772-4.462-.247-4.962 1.574Zm-17.247 28.532c.695-2.53 1.795-4.6 3.3-6.211 1.535-1.603 3.388-2.67 5.559-3.202 2.192-.493 4.616-.375 7.269.354 4.012 1.102 7.414 2.85 10.208 5.244 2.825 2.402 4.783 5.18 5.874 8.334 1.114 3.193 1.213 6.456.298 9.788-.695 2.53-1.811 4.597-3.346 6.199-1.504 1.611-3.353 2.663-5.546 3.156-2.17.532-4.583.433-7.236-.296-4.012-1.102-7.43-2.854-10.254-5.256-2.794-2.393-4.748-5.187-5.862-8.38-1.091-3.154-1.179-6.397-.264-9.73Zm8.443 3.515c-.322 1.172.081 2.361 1.21 3.568 1.129 1.206 2.579 2.268 4.351 3.186 1.795.958 3.494 1.657 5.099 2.098 2.808.771 4.462.247 4.962-1.574.322-1.173-.081-2.362-1.21-3.568s-2.59-2.288-4.385-3.246c-1.772-.918-3.46-1.597-5.065-2.038-2.808-.772-4.462-.247-4.962 1.574Zm-22.241 46.714c.907-3.302 2.309-6.053 4.208-8.252 1.921-2.161 4.167-3.634 6.74-4.421 2.564-.756 5.265-.744 8.104.036 3.764 1.034 6.875 2.818 9.332 5.351 2.448 2.565 4.066 5.614 4.853 9.149.81 3.574.673 7.336-.412 11.286-.856 3.117-2.186 5.721-3.989 7.815-1.772 2.101-3.853 3.454-6.242 4.059l-3.994-9.56c2.928-.755 4.787-2.567 5.575-5.437.466-1.697.465-3.324-.003-4.879-.469-1.556-1.358-2.912-2.666-4.068-1.278-1.147-2.873-1.984-4.786-2.509-1.913-.526-3.622-.348-5.125.533-1.481.921-2.496 2.384-3.047 4.39-.755 2.746-.166 5.496 1.765 8.25l-7.923 4.743c-1.798-2.518-2.859-5.116-3.185-7.795-.335-2.647-.07-5.544.795-8.691Zm-4.375 40.929 3.395-12.358-4.757-4.792 3.166-11.525 26.729 29.545-2.95 10.738-34.511-1.218 2.989-10.877 5.939.487Zm8.288.634 8.717.702-6.975-7.043-1.742 6.341Zm12.925 26.88L479.1 922.01c-.933 3.395-2.293 6.173-4.082 8.337-1.798 2.194-3.913 3.671-6.345 4.429-2.431.759-5.051.753-7.859-.018-3.734-1.026-6.783-2.793-9.147-5.301-2.333-2.499-3.848-5.504-4.543-9.013-.672-3.47-.47-7.165.606-11.084l4.768-17.357 30.62 15.381Zm-26.973 4.686c-.772 2.808-.49 5.225.845 7.251 1.358 2.066 3.425 3.48 6.202 4.243 1.882.517 3.494.329 4.834-.564 1.332-.862 2.299-2.388 2.901-4.579l1.144-4.166-14.527-7.276-1.399 5.091Z" fill="#fff"/></g><g clip-path="url('#clip6_9_792')"><path d="m326.78 380.929 32.527-10.776 5.602 9.846-24.247 8.052 2.849 5.007-8.281 2.723-8.45-14.852Zm16.133-41.143c1.297 2.281 1.984 4.523 2.059 6.726.048 2.219-.508 4.284-1.667 6.195-1.202 1.899-2.999 3.529-5.391 4.89-3.615 2.057-7.257 3.227-10.925 3.51-3.696.299-7.045-.281-10.047-1.739-3.045-1.471-5.423-3.708-7.132-6.712-1.297-2.28-1.97-4.53-2.018-6.749-.075-2.203.489-4.254 1.691-6.153 1.158-1.911 2.934-3.547 5.326-4.908 3.615-2.057 7.271-3.235 10.967-3.534 3.668-.283 7.025.311 10.07 1.781 3.002 1.459 5.358 3.69 7.067 6.693Zm-8.455 3.486c-.601-1.057-1.728-1.613-3.379-1.668-1.651-.054-3.427.22-5.33.824-1.946.592-3.642 1.299-5.088 2.122-2.531 1.44-3.33 2.98-2.396 4.621.601 1.057 1.727 1.613 3.378 1.668 1.652.054 3.45-.214 5.396-.806 1.902-.604 3.577-1.317 5.023-2.14 2.531-1.44 3.33-2.98 2.396-4.621Zm-7.981-32.372c1.298 2.281 1.985 4.523 2.06 6.726a11.256 11.256 0 0 1-1.667 6.195c-1.202 1.899-2.999 3.529-5.391 4.889-3.616 2.058-7.258 3.228-10.926 3.511-3.695.298-7.044-.281-10.046-1.74-3.046-1.47-5.423-3.707-7.132-6.711-1.298-2.28-1.97-4.53-2.018-6.749-.075-2.203.488-4.254 1.691-6.153 1.158-1.911 2.933-3.547 5.325-4.908 3.616-2.057 7.272-3.235 10.968-3.534 3.668-.283 7.024.311 10.07 1.781 3.002 1.459 5.357 3.69 7.066 6.693Zm-8.454 3.485c-.602-1.056-1.728-1.612-3.379-1.667-1.651-.055-3.428.22-5.33.824-1.946.591-3.642 1.299-5.088 2.122-2.531 1.44-3.33 2.98-2.396 4.621.601 1.057 1.727 1.613 3.378 1.668 1.651.054 3.45-.214 5.396-.806 1.902-.604 3.576-1.317 5.023-2.14 2.531-1.44 3.329-2.981 2.396-4.622Zm-7.981-32.371c1.298 2.281 1.984 4.523 2.06 6.726a11.264 11.264 0 0 1-1.667 6.195c-1.202 1.899-2.999 3.528-5.391 4.889-3.616 2.058-7.258 3.228-10.926 3.511-3.696.298-7.045-.281-10.046-1.74-3.046-1.47-5.423-3.707-7.132-6.711-1.298-2.28-1.971-4.53-2.018-6.749-.075-2.203.488-4.254 1.69-6.153 1.159-1.911 2.934-3.547 5.326-4.908 3.616-2.057 7.272-3.235 10.967-3.534 3.668-.283 7.025.311 10.071 1.781 3.002 1.458 5.357 3.689 7.066 6.693Zm-8.455 3.485c-.601-1.057-1.727-1.612-3.378-1.667-1.651-.055-3.428.22-5.33.824-1.946.591-3.642 1.299-5.089 2.122-2.531 1.44-3.329 2.98-2.396 4.621.602 1.057 1.728 1.613 3.379 1.668 1.651.054 3.45-.214 5.395-.806 1.903-.604 3.577-1.317 5.023-2.14 2.531-1.44 3.33-2.981 2.396-4.622Zm-17.304-48.758c1.693 2.976 2.646 5.912 2.859 8.81.169 2.886-.377 5.517-1.64 7.892-1.278 2.347-3.197 4.249-5.756 5.705-3.393 1.93-6.854 2.869-10.382 2.814-3.545-.082-6.845-1.094-9.902-3.037-3.1-1.954-5.663-4.711-7.688-8.272-1.599-2.809-2.5-5.591-2.706-8.346-.233-2.739.282-5.167 1.544-7.284l9.584 3.935c-1.537 2.605-1.569 5.201-.098 7.787.871 1.53 2.021 2.679 3.453 3.448 1.431.769 3.018 1.099 4.761.991 1.715-.092 3.434-.628 5.159-1.61 1.724-.981 2.806-2.314 3.246-4 .396-1.698.08-3.451-.949-5.259-1.408-2.476-3.769-4.004-7.082-4.586l2.249-8.956c3.052.51 5.639 1.596 7.764 3.259 2.108 1.635 3.97 3.872 5.584 6.709Zm-25.848-32.035 6.338 11.139 6.751.024 5.911 10.389-39.791-1.991-5.507-9.679 25.263-23.542 5.579 9.804-4.544 3.856Zm-6.309 5.412-6.661 5.667 9.913.048-3.252-5.715Zm-28.147-9.868-7.501-13.184c-1.74-3.059-2.743-5.986-3.008-8.781-.28-2.822.171-5.362 1.354-7.618 1.183-2.256 3.04-4.104 5.571-5.544 3.365-1.915 6.771-2.822 10.216-2.72 3.417.117 6.612 1.171 9.585 3.161 2.93 1.978 5.399 4.733 7.409 8.266l8.901 15.645-32.527 10.775Zm15.76-22.386c-1.44-2.531-3.349-4.041-5.725-4.53-2.421-.5-4.882-.039-7.386 1.386-1.696.965-2.703 2.237-3.019 3.816-.333 1.552.063 3.315 1.187 5.289l2.136 3.755 15.418-5.127-2.611-4.589Z" fill="#EB017F"/></g><g clip-path="url('#clip7_9_792')"><path d="m673.221 619.367-32.527 10.775-5.602-9.846 24.247-8.052-2.849-5.006 8.281-2.723 8.45 14.852Zm-16.133 41.142c-1.297-2.281-1.984-4.522-2.059-6.725-.048-2.219.508-4.284 1.667-6.195 1.202-1.899 2.999-3.529 5.391-4.89 3.615-2.057 7.257-3.227 10.925-3.51 3.696-.299 7.045.281 10.047 1.739 3.045 1.47 5.423 3.707 7.132 6.711 1.297 2.281 1.97 4.531 2.017 6.749.076 2.203-.488 4.254-1.69 6.153-1.158 1.911-2.934 3.547-5.326 4.908-3.615 2.057-7.271 3.235-10.967 3.534-3.668.283-7.025-.31-10.07-1.781-3.002-1.458-5.358-3.689-7.067-6.693Zm8.455-3.485c.601 1.057 1.728 1.613 3.379 1.667 1.651.055 3.427-.219 5.33-.823 1.946-.592 3.642-1.299 5.088-2.122 2.531-1.44 3.33-2.981 2.396-4.622-.601-1.057-1.727-1.612-3.379-1.667-1.651-.055-3.449.214-5.395.806-1.902.603-3.577 1.317-5.023 2.139-2.531 1.441-3.33 2.981-2.396 4.622Zm7.981 32.371c-1.298-2.28-1.985-4.522-2.06-6.725a11.256 11.256 0 0 1 1.667-6.195c1.202-1.899 2.999-3.529 5.391-4.89 3.616-2.057 7.258-3.227 10.926-3.51 3.695-.299 7.044.281 10.046 1.739 3.046 1.47 5.423 3.707 7.132 6.711 1.298 2.281 1.97 4.531 2.018 6.75.075 2.203-.488 4.253-1.691 6.152-1.158 1.911-2.933 3.547-5.325 4.908-3.616 2.058-7.272 3.236-10.968 3.534-3.668.283-7.024-.31-10.07-1.781-3.002-1.458-5.357-3.689-7.066-6.693Zm8.454-3.485c.602 1.057 1.728 1.613 3.379 1.667 1.651.055 3.428-.219 5.33-.823 1.946-.592 3.642-1.299 5.088-2.122 2.531-1.44 3.33-2.981 2.396-4.622-.601-1.057-1.727-1.612-3.378-1.667-1.651-.055-3.45.214-5.396.806-1.902.603-3.576 1.317-5.023 2.14-2.531 1.44-3.329 2.98-2.396 4.621Zm7.981 32.371c-1.298-2.28-1.984-4.522-2.06-6.725a11.264 11.264 0 0 1 1.667-6.195c1.202-1.899 2.999-3.529 5.391-4.89 3.616-2.057 7.258-3.227 10.926-3.51 3.696-.299 7.044.281 10.046 1.739 3.046 1.47 5.423 3.707 7.132 6.711 1.298 2.281 1.971 4.531 2.018 6.75.075 2.203-.488 4.254-1.69 6.153-1.159 1.911-2.934 3.546-5.326 4.907-3.616 2.058-7.272 3.236-10.967 3.534-3.668.283-7.025-.31-10.071-1.781-3.002-1.458-5.357-3.689-7.066-6.693Zm8.455-3.485c.601 1.057 1.727 1.613 3.378 1.668 1.651.054 3.428-.22 5.33-.824 1.946-.592 3.642-1.299 5.089-2.122 2.531-1.44 3.329-2.981 2.396-4.622-.602-1.057-1.728-1.612-3.379-1.667-1.651-.055-3.45.214-5.395.806-1.903.603-3.577 1.317-5.023 2.14-2.531 1.44-3.33 2.98-2.396 4.621Zm17.304 48.759c-1.693-2.976-2.646-5.913-2.859-8.811-.169-2.886.377-5.516 1.64-7.891 1.278-2.348 3.197-4.249 5.756-5.705 3.393-1.931 6.854-2.869 10.382-2.815 3.545.082 6.845 1.095 9.902 3.037 3.1 1.955 5.663 4.712 7.688 8.272 1.599 2.809 2.5 5.591 2.706 8.346.233 2.739-.282 5.168-1.544 7.285l-9.584-3.936c1.537-2.604 1.569-5.2.098-7.787-.871-1.53-2.021-2.679-3.453-3.447-1.431-.769-3.018-1.1-4.761-.992-1.715.092-3.434.629-5.159 1.61-1.724.981-2.806 2.315-3.246 4.001-.396 1.698-.08 3.451.949 5.259 1.408 2.475 3.769 4.004 7.082 4.585l-2.249 8.956c-3.052-.509-5.639-1.596-7.764-3.259-2.108-1.635-3.97-3.871-5.584-6.708Zm25.848 32.035-6.338-11.139-6.751-.025-5.911-10.388 39.791 1.991 5.507 9.679-25.263 23.542-5.579-9.805 4.544-3.855Zm6.309-5.412 6.661-5.668-9.913-.048 3.252 5.716Zm28.147 9.868 7.501 13.183c1.74 3.06 2.743 5.987 3.008 8.781.28 2.823-.171 5.362-1.354 7.619-1.183 2.256-3.04 4.104-5.571 5.544-3.365 1.915-6.771 2.821-10.216 2.72-3.417-.118-6.612-1.172-9.585-3.162-2.93-1.978-5.399-4.733-7.409-8.265l-8.901-15.645 32.527-10.775Zm-15.76 22.386c1.44 2.531 3.349 4.041 5.725 4.529 2.421.501 4.882.039 7.386-1.385 1.696-.965 2.703-2.238 3.019-3.817.333-1.551-.063-3.314-1.187-5.289l-2.136-3.754-15.418 5.127 2.611 4.589Z" fill="#EB017F"/></g><defs><clipPath id="clip0_9_792"><path fill="#fff" transform="rotate(15.362 -1233.173 2738.967)" d="M0 0h294v92H0z"/></clipPath><clipPath id="clip1_9_792"><path fill="#fff" transform="rotate(-164.639 198.066 266.407)" d="M0 0h294v92H0z"/></clipPath><clipPath id="clip2_9_792"><path fill="#fff" transform="rotate(-29.639 889.035 -927.28)" d="M0 0h294v92H0z"/></clipPath><clipPath id="clip3_9_792"><path fill="#fff" transform="rotate(150.361 122.343 397.222)" d="M0 0h294v92H0z"/></clipPath><clipPath id="clip4_9_792"><path fill="#fff" transform="rotate(-74.638 421.179 -119.032)" d="M0 0h294v92H0z"/></clipPath><clipPath id="clip5_9_792"><path fill="#fff" transform="rotate(105.361 27.981 560.239)" d="M0 0h294v92H0z"/></clipPath><clipPath id="clip6_9_792"><path fill="#fff" transform="rotate(-119.639 282.748 120.112)" d="M0 0h294v92H0z"/></clipPath><clipPath id="clip7_9_792"><path fill="#fff" transform="rotate(60.362 -153.472 873.71)" d="M0 0h294v92H0z"/></clipPath></defs></svg>